<?xml version="1.0" standalone="no"?>
<!DOCTYPE svg PUBLIC "-//W3C//DTD SVG 20010904//EN"
 "http://www.w3.org/TR/2001/REC-SVG-20010904/DTD/svg10.dtd">
<svg version="1.0" xmlns="http://www.w3.org/2000/svg"
 width="500.000000pt" height="500.000000pt" viewBox="0 0 500.000000 500.000000"
 preserveAspectRatio="xMidYMid meet">

<g transform="translate(0.000000,500.000000) scale(0.100000,-0.100000)"
fill="#000000" stroke="none">
<path d="M2485 4614 c-424 -32 -800 -158 -1141 -382 -246 -162 -497 -422 -659
-683 -153 -247 -266 -570 -306 -879 -16 -120 -16 -416 0 -540 50 -389 211
-785 440 -1080 94 -121 309 -334 423 -418 311 -232 651 -371 1058 -434 128
-20 498 -17 634 5 596 95 1131 419 1482 897 216 295 367 700 405 1095 22 221
0 528 -52 743 -96 397 -341 812 -645 1091 -92 84 -270 216 -369 274 -261 151
-572 257 -867 296 -87 12 -327 21 -403 15z m314 -388 c7 -8 11 -27 9 -43 -2
-23 -9 -29 -33 -31 -46 -6 -71 40 -39 72 19 20 48 20 63 2z m-321 -48 c7 -54
-71 -64 -84 -11 -6 20 -2 31 16 45 20 16 25 17 44 5 12 -8 22 -25 24 -39z
m-378 7 c0 -13 -55 -56 -159 -124 -20 -13 -93 -80 -162 -150 -276 -278 -444
-620 -488 -996 -20 -173 -22 -241 -11 -355 28 -306 105 -547 253 -795 127
-214 326 -421 538 -558 224 -146 505 -244 762 -268 146 -14 388 -6 507 16 257
49 493 146 666 276 43 32 82 59 87 59 15 0 6 -42 -19 -93 -85 -169 -336 -391
-582 -516 -183 -93 -303 -135 -502 -175 -265 -54 -521 -53 -802 4 -635 129
-1171 572 -1414 1169 -37 90 -94 299 -116 421 -20 116 -17 472 5 585 33 165
68 289 112 401 39 97 68 155 154 308 42 73 158 221 255 323 97 102 217 203
334 282 65 44 238 126 332 156 129 43 250 57 250 30z m1082 -25 c9 -17 29 -35
43 -42 33 -15 32 -25 -4 -46 -16 -9 -36 -30 -44 -47 l-14 -30 -17 32 c-9 18
-30 40 -46 48 -37 19 -38 32 -5 45 14 5 34 23 43 40 9 16 19 30 22 30 3 0 13
-14 22 -30z m-892 -69 c7 -15 6 -23 -6 -35 -18 -19 -20 -19 -45 -6 -19 10 -26
40 -12 53 13 14 53 6 63 -12z m1263 -124 c20 -10 37 -22 37 -25 0 -4 -17 -16
-37 -27 -21 -11 -47 -37 -59 -59 l-22 -39 -21 41 c-15 29 -35 49 -64 63 l-42
22 42 20 c26 13 49 34 63 59 l22 40 22 -38 c13 -24 36 -46 59 -57z m-874 19
c5 -27 -26 -48 -50 -35 -19 10 -25 39 -12 53 14 14 58 1 62 -18z m316 -91 c0
-25 -4 -30 -24 -30 -28 0 -47 25 -38 49 5 12 16 16 34 14 24 -3 28 -8 28 -33z
m-531 -50 c56 -186 159 -282 356 -330 38 -9 70 -20 70 -25 0 -4 -46 -19 -102
-34 -124 -32 -176 -61 -230 -129 -48 -60 -70 -107 -94 -197 -10 -36 -21 -69
-24 -73 -4 -5 -18 33 -30 83 -47 190 -143 281 -342 325 -43 9 -78 21 -78 25 0
4 33 16 73 25 170 41 294 142 330 270 3 11 13 46 22 78 10 33 20 55 24 50 4
-4 15 -35 25 -68z m-290 -28 c8 -12 8 -22 0 -34 -14 -23 -23 -22 -54 0 l-25
18 25 19 c28 22 39 21 54 -3z m656 -30 c14 -25 13 -28 -7 -48 -21 -21 -23 -21
-47 -5 -36 23 -33 65 4 79 23 8 34 3 50 -26z m-922 -9 c19 -19 14 -56 -8 -68
-38 -21 -80 22 -60 61 12 21 50 25 68 7z m2046 -40 c20 -28 4 -58 -29 -58 -33
0 -47 47 -20 67 25 18 31 17 49 -9z m-860 -80 c15 -25 -3 -52 -38 -56 -20 -3
-28 2 -35 20 -13 33 4 60 36 56 14 -2 31 -11 37 -20z m618 -22 c12 -18 -12
-47 -35 -44 -25 3 -37 46 -16 58 14 9 41 2 51 -14z m-357 -87 c13 -27 31 -47
56 -60 52 -26 55 -36 16 -52 -37 -16 -74 -57 -83 -94 -4 -12 -10 -23 -14 -23
-4 0 -10 11 -14 23 -9 36 -46 78 -83 93 -18 8 -33 18 -33 22 0 4 21 19 45 34
27 16 52 41 62 63 9 19 20 35 23 35 4 0 15 -18 25 -41z m-1586 -8 c13 -25 31
-43 51 -49 16 -6 30 -13 30 -16 0 -3 -17 -17 -38 -30 -22 -13 -45 -39 -52 -56
l-13 -32 -16 33 c-9 20 -32 42 -54 54 -20 11 -37 23 -37 27 0 3 15 15 34 26
19 11 42 34 51 51 8 17 18 31 20 31 3 0 14 -18 24 -39z m2326 1 c14 -25 28
-38 45 -40 77 -8 83 -15 46 -59 -22 -27 -23 -31 -10 -62 20 -48 18 -53 -25
-50 -33 3 -43 -1 -62 -25 l-21 -27 -19 30 c-16 27 -21 29 -58 24 -46 -6 -49 1
-27 52 12 27 11 33 -11 58 -36 44 -30 51 47 59 17 2 31 15 45 40 11 21 22 38
25 38 3 0 14 -17 25 -38z m-354 -182 c29 -16 26 -67 -5 -81 -34 -16 -66 3 -66
41 0 41 33 60 71 40z m-1696 -186 l-40 -41 -17 25 c-10 15 -27 34 -39 43 l-22
17 21 11 c12 6 29 25 37 41 l15 29 43 -42 42 -42 -40 -41z m865 21 c28 -9 25
-22 -10 -40 -16 -8 -37 -30 -46 -47 l-17 -32 -18 35 c-9 19 -29 40 -43 47 -33
15 -33 23 4 44 17 9 35 29 42 43 l11 25 29 -34 c16 -19 37 -38 48 -41z m234
53 c16 -27 -14 -54 -43 -39 -24 13 -27 31 -9 49 16 16 38 12 52 -10z m411 -66
c11 -21 36 -46 57 -57 21 -11 38 -23 38 -27 0 -3 -17 -15 -37 -25 -25 -11 -46
-33 -62 -61 l-23 -43 -20 41 c-14 27 -34 48 -59 61 -22 11 -39 23 -39 27 0 4
18 17 41 30 25 15 46 36 55 58 8 19 18 34 22 34 4 0 16 -17 27 -38z m880 18
c14 -43 -44 -69 -65 -31 -15 29 -2 51 30 51 20 0 31 -6 35 -20z m-2840 -44
c13 -19 14 -29 5 -45 -20 -39 -80 -21 -80 24 0 47 49 60 75 21z m264 -127 c12
-16 33 -34 47 -39 32 -13 30 -26 -6 -45 -16 -8 -37 -30 -46 -47 l-16 -31 -19
24 c-10 13 -19 26 -19 29 0 3 -13 14 -30 23 -38 23 -38 33 0 52 17 9 36 27 42
40 14 32 20 31 47 -6z m2235 -5 c18 -18 18 -17 10 -38 -17 -44 -84 -38 -84 7
0 44 43 62 74 31z m-955 -33 c13 -24 -8 -55 -34 -50 -28 6 -42 34 -26 53 18
22 48 20 60 -3z m656 -26 c0 -27 -3 -30 -30 -30 -21 0 -31 5 -33 18 -6 33 6
49 35 45 24 -3 28 -8 28 -33z m670 0 c0 -25 -4 -30 -25 -30 -16 0 -26 6 -28
18 -6 30 6 49 30 45 18 -2 23 -9 23 -33z m-2241 -31 c21 -21 20 -37 -3 -58
-38 -34 -85 26 -49 62 16 16 33 15 52 -4z m650 -36 c15 -25 -4 -53 -35 -53
-25 0 -37 30 -25 61 8 20 46 14 60 -8z m544 0 c19 -19 14 -46 -9 -59 -18 -9
-25 -7 -41 9 -16 16 -18 23 -9 41 13 23 40 28 59 9z m-1870 -35 c5 -10 7 -24
5 -30 -6 -18 -42 -16 -49 2 -15 38 26 63 44 28z m1413 -152 c95 -36 96 -38 68
-106 -13 -31 -29 -60 -37 -62 -7 -3 -34 4 -60 15 -26 11 -71 25 -101 31 -109
23 -226 -26 -219 -92 5 -49 38 -65 173 -82 147 -19 182 -28 226 -58 108 -73
126 -216 39 -326 -33 -41 -50 -53 -117 -77 -108 -40 -238 -40 -363 1 -93 30
-140 53 -140 70 0 23 63 126 74 121 136 -61 230 -80 312 -65 58 11 95 36 108
72 8 22 6 31 -14 52 -28 30 -62 39 -190 55 -148 18 -234 64 -271 145 -58 125
25 269 184 321 65 21 257 13 328 -15z m866 19 c41 -15 57 -49 144 -297 41
-117 77 -213 81 -213 3 0 10 15 13 33 4 17 32 97 61 175 30 79 54 147 54 152
0 4 -18 10 -40 14 -60 10 -79 60 -39 110 20 26 21 26 165 26 131 0 146 -2 164
-20 24 -24 27 -82 5 -100 -8 -7 -30 -16 -47 -19 l-32 -7 -88 -269 c-110 -339
-110 -339 -165 -366 -42 -20 -46 -21 -87 -5 -24 9 -50 24 -58 34 -16 18 -76
174 -123 320 -15 45 -30 82 -34 82 -3 0 -35 -82 -71 -181 -35 -100 -73 -196
-85 -213 -12 -19 -36 -36 -60 -44 -34 -11 -46 -11 -83 4 -53 20 -45 3 -169
361 -87 251 -100 283 -119 283 -61 0 -90 84 -43 122 18 15 43 18 161 18 134 0
140 -1 163 -25 45 -45 27 -101 -35 -111 -22 -4 -40 -10 -40 -14 0 -19 123
-360 130 -360 5 0 66 170 120 335 48 148 54 157 126 185 1 0 14 -5 31 -10z
m-1672 -27 c22 -11 61 -43 87 -71 37 -39 48 -60 58 -107 20 -96 -3 -177 -68
-243 -52 -51 -109 -72 -212 -79 l-90 -6 0 -53 c0 -50 2 -54 24 -54 39 0 76
-36 76 -75 0 -58 -26 -67 -186 -67 -127 1 -138 2 -160 23 -13 12 -24 33 -24
46 0 34 43 73 80 73 l30 0 0 250 0 250 -30 0 c-36 0 -80 39 -80 70 0 12 11 32
25 46 l26 25 202 -3 c184 -3 206 -5 242 -25z m-640 -58 c0 -27 -3 -30 -30 -30
-21 0 -31 5 -33 18 -5 25 17 49 42 45 16 -2 21 -10 21 -33z m2993 -196 c3 -28
-16 -43 -43 -33 -15 6 -21 45 -8 58 16 16 48 1 51 -25z m-2933 -184 c0 -38
-37 -48 -55 -15 -14 27 4 52 34 48 16 -2 21 -10 21 -33z m2905 -40 c7 -9 10
-25 6 -40 -6 -22 -11 -26 -39 -23 -25 2 -33 8 -35 26 -7 44 41 70 68 37z
m-157 -355 c10 -16 29 -35 44 -42 33 -17 33 -30 -2 -47 -15 -7 -35 -26 -44
-42 -20 -36 -29 -36 -41 -4 -5 14 -26 35 -45 46 -19 12 -35 23 -35 25 0 2 13
10 30 19 16 8 37 29 45 45 19 37 26 37 48 0z m-975 -45 c7 -14 28 -35 47 -46
19 -12 35 -24 35 -29 0 -4 -14 -13 -31 -20 -18 -8 -37 -27 -47 -47 -9 -18 -19
-33 -22 -33 -3 0 -13 15 -22 33 -10 20 -29 39 -47 47 -39 16 -39 32 -1 47 16
6 38 25 47 42 22 37 27 38 41 6z m-406 -20 c0 -5 -5 -11 -11 -13 -6 -2 -11 4
-11 13 0 9 5 15 11 13 6 -2 11 -8 11 -13z m-1038 -31 c20 -19 20 -28 1 -44
-31 -26 -82 13 -56 44 17 20 35 20 55 0z m608 -105 l-27 -28 -28 27 -27 26 27
22 27 21 28 -20 28 -21 -28 -27z m-327 22 c8 -38 46 -79 85 -93 33 -11 35 -31
4 -37 -37 -7 -74 -42 -85 -82 -15 -48 -24 -49 -39 -5 -13 40 -45 72 -88 87
-38 13 -41 25 -9 34 40 13 85 54 97 90 14 43 26 45 35 6z m1713 -48 c9 -7 28
-13 43 -13 40 0 43 -14 13 -50 -22 -26 -25 -37 -20 -70 7 -45 3 -47 -50 -25
-32 13 -39 13 -64 0 -46 -24 -53 -20 -47 28 5 37 2 46 -25 74 -33 34 -33 33
38 48 23 4 35 15 48 43 l18 37 15 -30 c8 -17 22 -36 31 -42z m-838 -25 c13
-42 67 -92 117 -109 44 -14 42 -26 -9 -48 -53 -23 -91 -63 -116 -121 l-19 -45
-13 40 c-20 63 -49 96 -107 122 -29 13 -53 28 -53 32 0 4 23 18 51 31 58 28
92 63 109 116 14 40 22 36 40 -18z m-360 -73 c17 -20 5 -45 -20 -45 -23 0 -35
22 -26 45 7 19 30 19 46 0z m1388 -19 c2 -10 -1 -23 -7 -29 -15 -15 -46 16
-37 38 8 21 40 15 44 -9z m-538 -120 c31 -38 -9 -89 -54 -68 -45 20 -30 82 20
82 12 0 27 -7 34 -14z m-805 -92 c26 -25 45 -47 43 -49 -2 -1 -13 -8 -25 -14
-13 -6 -30 -25 -38 -41 -16 -32 -35 -40 -35 -15 0 8 -16 27 -35 42 -42 33 -44
46 -10 61 14 7 30 23 37 37 6 14 13 25 14 25 2 0 24 -21 49 -46z m1075 21 c18
-22 8 -50 -19 -50 -32 0 -49 28 -32 49 17 20 35 20 51 1z m-1382 -97 c-2 -12
-11 -26 -21 -32 -15 -9 -21 -7 -33 8 -18 25 -18 31 2 50 21 21 57 3 52 -26z
m776 -44 c20 -19 20 -38 2 -54 -23 -19 -61 -8 -64 18 -7 44 32 67 62 36z"/>
<path d="M885 2716 c-40 -18 -82 -67 -96 -114 -25 -85 42 -183 134 -197 57 -9
124 19 157 65 31 43 38 125 16 168 -38 73 -140 111 -211 78z"/>
<path d="M1024 1865 c-8 -21 2 -45 19 -45 20 0 40 27 33 45 -7 19 -45 20 -52
0z"/>
<path d="M1223 1415 c-67 -28 -83 -97 -34 -146 41 -40 91 -40 132 0 55 56 31
128 -52 154 -8 3 -29 -1 -46 -8z"/>
<path d="M1704 995 c-4 -9 0 -23 8 -31 20 -20 50 -7 46 20 -4 26 -45 35 -54
11z"/>
<path d="M1932 2468 l3 -113 39 -3 c48 -4 121 22 141 51 8 12 15 36 15 54 0
81 -48 123 -143 123 l-58 0 3 -112z"/>
</g>
</svg>
